<mxfile host="app.diagrams.net" modified="2023-10-26T11:11:25.924Z" agent="Mozilla/5.0 (Windows NT 10.0; Win64; x64; rv:109.0) Gecko/20100101 Firefox/119.0" etag="6ocOAwEfGOCULZ8b6s2R" version="22.0.8" type="github">
  <diagram name="Page-1" id="e7e014a7-5840-1c2e-5031-d8a46d1fe8dd">
    <mxGraphModel dx="1750" dy="883" grid="1" gridSize="10" guides="1" tooltips="1" connect="1" arrows="1" fold="1" page="1" pageScale="1" pageWidth="1169" pageHeight="826" background="none" math="0" shadow="0">
      <root>
        <mxCell id="0" />
        <mxCell id="1" parent="0" />
        <mxCell id="XB7Z7pcZkWl5WEAXLOiz-43" style="edgeStyle=orthogonalEdgeStyle;rounded=0;orthogonalLoop=1;jettySize=auto;html=1;exitX=0.5;exitY=1;exitDx=0;exitDy=0;entryX=0.5;entryY=0;entryDx=0;entryDy=0;" edge="1" parent="1" source="XB7Z7pcZkWl5WEAXLOiz-41" target="XB7Z7pcZkWl5WEAXLOiz-42">
          <mxGeometry relative="1" as="geometry" />
        </mxCell>
        <mxCell id="XB7Z7pcZkWl5WEAXLOiz-44" value="[open Website]" style="edgeLabel;html=1;align=center;verticalAlign=middle;resizable=0;points=[];" vertex="1" connectable="0" parent="XB7Z7pcZkWl5WEAXLOiz-43">
          <mxGeometry x="0.2067" y="-4" relative="1" as="geometry">
            <mxPoint x="4" as="offset" />
          </mxGeometry>
        </mxCell>
        <mxCell id="XB7Z7pcZkWl5WEAXLOiz-41" value="A" style="ellipse;whiteSpace=wrap;html=1;aspect=fixed;" vertex="1" parent="1">
          <mxGeometry x="220" y="70" width="80" height="80" as="geometry" />
        </mxCell>
        <mxCell id="XB7Z7pcZkWl5WEAXLOiz-46" style="edgeStyle=orthogonalEdgeStyle;rounded=0;orthogonalLoop=1;jettySize=auto;html=1;exitX=0.5;exitY=1;exitDx=0;exitDy=0;entryX=0.5;entryY=0;entryDx=0;entryDy=0;" edge="1" parent="1" source="XB7Z7pcZkWl5WEAXLOiz-42" target="XB7Z7pcZkWl5WEAXLOiz-45">
          <mxGeometry relative="1" as="geometry" />
        </mxCell>
        <mxCell id="XB7Z7pcZkWl5WEAXLOiz-55" style="edgeStyle=orthogonalEdgeStyle;rounded=0;orthogonalLoop=1;jettySize=auto;html=1;exitX=1;exitY=0.5;exitDx=0;exitDy=0;entryX=0.5;entryY=0;entryDx=0;entryDy=0;" edge="1" parent="1" source="XB7Z7pcZkWl5WEAXLOiz-42" target="XB7Z7pcZkWl5WEAXLOiz-54">
          <mxGeometry relative="1" as="geometry" />
        </mxCell>
        <mxCell id="XB7Z7pcZkWl5WEAXLOiz-42" value="View Homepage" style="rounded=1;whiteSpace=wrap;html=1;" vertex="1" parent="1">
          <mxGeometry x="200" y="250" width="120" height="60" as="geometry" />
        </mxCell>
        <mxCell id="XB7Z7pcZkWl5WEAXLOiz-48" style="edgeStyle=orthogonalEdgeStyle;rounded=0;orthogonalLoop=1;jettySize=auto;html=1;exitX=0.5;exitY=1;exitDx=0;exitDy=0;entryX=0.5;entryY=0;entryDx=0;entryDy=0;" edge="1" parent="1" source="XB7Z7pcZkWl5WEAXLOiz-45" target="XB7Z7pcZkWl5WEAXLOiz-47">
          <mxGeometry relative="1" as="geometry" />
        </mxCell>
        <mxCell id="XB7Z7pcZkWl5WEAXLOiz-45" value="B" style="ellipse;whiteSpace=wrap;html=1;aspect=fixed;" vertex="1" parent="1">
          <mxGeometry x="235" y="388" width="50" height="50" as="geometry" />
        </mxCell>
        <mxCell id="XB7Z7pcZkWl5WEAXLOiz-49" style="edgeStyle=orthogonalEdgeStyle;rounded=0;orthogonalLoop=1;jettySize=auto;html=1;exitX=0;exitY=0.5;exitDx=0;exitDy=0;entryX=0;entryY=0.5;entryDx=0;entryDy=0;" edge="1" parent="1" source="XB7Z7pcZkWl5WEAXLOiz-47" target="XB7Z7pcZkWl5WEAXLOiz-42">
          <mxGeometry relative="1" as="geometry" />
        </mxCell>
        <mxCell id="XB7Z7pcZkWl5WEAXLOiz-50" value="[cancelled sign in]" style="edgeLabel;html=1;align=center;verticalAlign=middle;resizable=0;points=[];" vertex="1" connectable="0" parent="XB7Z7pcZkWl5WEAXLOiz-49">
          <mxGeometry x="-0.3311" y="-3" relative="1" as="geometry">
            <mxPoint as="offset" />
          </mxGeometry>
        </mxCell>
        <mxCell id="XB7Z7pcZkWl5WEAXLOiz-52" style="edgeStyle=orthogonalEdgeStyle;rounded=0;orthogonalLoop=1;jettySize=auto;html=1;exitX=0.5;exitY=1;exitDx=0;exitDy=0;entryX=0.5;entryY=0;entryDx=0;entryDy=0;" edge="1" parent="1" source="XB7Z7pcZkWl5WEAXLOiz-47" target="XB7Z7pcZkWl5WEAXLOiz-51">
          <mxGeometry relative="1" as="geometry" />
        </mxCell>
        <mxCell id="XB7Z7pcZkWl5WEAXLOiz-53" value="[successful sign in]" style="edgeLabel;html=1;align=center;verticalAlign=middle;resizable=0;points=[];" vertex="1" connectable="0" parent="XB7Z7pcZkWl5WEAXLOiz-52">
          <mxGeometry x="-0.3" y="5" relative="1" as="geometry">
            <mxPoint as="offset" />
          </mxGeometry>
        </mxCell>
        <mxCell id="XB7Z7pcZkWl5WEAXLOiz-47" value="" style="rhombus;whiteSpace=wrap;html=1;" vertex="1" parent="1">
          <mxGeometry x="210" y="490" width="100" height="90" as="geometry" />
        </mxCell>
        <mxCell id="XB7Z7pcZkWl5WEAXLOiz-57" style="edgeStyle=orthogonalEdgeStyle;rounded=0;orthogonalLoop=1;jettySize=auto;html=1;exitX=1;exitY=0.5;exitDx=0;exitDy=0;" edge="1" parent="1" source="XB7Z7pcZkWl5WEAXLOiz-51" target="XB7Z7pcZkWl5WEAXLOiz-54">
          <mxGeometry relative="1" as="geometry" />
        </mxCell>
        <mxCell id="XB7Z7pcZkWl5WEAXLOiz-51" value="show Feed" style="rounded=1;whiteSpace=wrap;html=1;" vertex="1" parent="1">
          <mxGeometry x="200" y="620" width="120" height="60" as="geometry" />
        </mxCell>
        <mxCell id="XB7Z7pcZkWl5WEAXLOiz-59" style="edgeStyle=orthogonalEdgeStyle;rounded=0;orthogonalLoop=1;jettySize=auto;html=1;exitX=1;exitY=0.5;exitDx=0;exitDy=0;entryX=0.5;entryY=0;entryDx=0;entryDy=0;" edge="1" parent="1" source="XB7Z7pcZkWl5WEAXLOiz-54" target="XB7Z7pcZkWl5WEAXLOiz-58">
          <mxGeometry relative="1" as="geometry" />
        </mxCell>
        <mxCell id="XB7Z7pcZkWl5WEAXLOiz-54" value="" style="rhombus;whiteSpace=wrap;html=1;" vertex="1" parent="1">
          <mxGeometry x="390" y="368" width="100" height="90" as="geometry" />
        </mxCell>
        <mxCell id="XB7Z7pcZkWl5WEAXLOiz-61" style="edgeStyle=orthogonalEdgeStyle;rounded=0;orthogonalLoop=1;jettySize=auto;html=1;exitX=0.5;exitY=1;exitDx=0;exitDy=0;entryX=0.5;entryY=0;entryDx=0;entryDy=0;" edge="1" parent="1" source="XB7Z7pcZkWl5WEAXLOiz-58" target="XB7Z7pcZkWl5WEAXLOiz-60">
          <mxGeometry relative="1" as="geometry" />
        </mxCell>
        <mxCell id="XB7Z7pcZkWl5WEAXLOiz-58" value="Browse Site" style="rounded=1;whiteSpace=wrap;html=1;" vertex="1" parent="1">
          <mxGeometry x="540" y="280" width="120" height="60" as="geometry" />
        </mxCell>
        <mxCell id="XB7Z7pcZkWl5WEAXLOiz-63" style="edgeStyle=orthogonalEdgeStyle;rounded=0;orthogonalLoop=1;jettySize=auto;html=1;exitX=0.5;exitY=1;exitDx=0;exitDy=0;entryX=0.5;entryY=0;entryDx=0;entryDy=0;" edge="1" parent="1" source="XB7Z7pcZkWl5WEAXLOiz-60" target="XB7Z7pcZkWl5WEAXLOiz-62">
          <mxGeometry relative="1" as="geometry" />
        </mxCell>
        <mxCell id="XB7Z7pcZkWl5WEAXLOiz-60" value="Click on Post" style="rounded=1;whiteSpace=wrap;html=1;" vertex="1" parent="1">
          <mxGeometry x="540" y="450" width="120" height="60" as="geometry" />
        </mxCell>
        <mxCell id="XB7Z7pcZkWl5WEAXLOiz-65" style="edgeStyle=orthogonalEdgeStyle;rounded=0;orthogonalLoop=1;jettySize=auto;html=1;exitX=0.5;exitY=1;exitDx=0;exitDy=0;entryX=0.5;entryY=0;entryDx=0;entryDy=0;" edge="1" parent="1" source="XB7Z7pcZkWl5WEAXLOiz-62" target="XB7Z7pcZkWl5WEAXLOiz-64">
          <mxGeometry relative="1" as="geometry" />
        </mxCell>
        <mxCell id="XB7Z7pcZkWl5WEAXLOiz-62" value="See post in full view" style="rounded=1;whiteSpace=wrap;html=1;" vertex="1" parent="1">
          <mxGeometry x="740" y="280" width="120" height="60" as="geometry" />
        </mxCell>
        <mxCell id="XB7Z7pcZkWl5WEAXLOiz-67" style="edgeStyle=orthogonalEdgeStyle;rounded=0;orthogonalLoop=1;jettySize=auto;html=1;exitX=0.5;exitY=1;exitDx=0;exitDy=0;entryX=0.5;entryY=0;entryDx=0;entryDy=0;" edge="1" parent="1" source="XB7Z7pcZkWl5WEAXLOiz-64" target="XB7Z7pcZkWl5WEAXLOiz-66">
          <mxGeometry relative="1" as="geometry" />
        </mxCell>
        <mxCell id="XB7Z7pcZkWl5WEAXLOiz-68" value="[user signed in]" style="edgeLabel;html=1;align=center;verticalAlign=middle;resizable=0;points=[];" vertex="1" connectable="0" parent="XB7Z7pcZkWl5WEAXLOiz-67">
          <mxGeometry x="-0.0244" y="1" relative="1" as="geometry">
            <mxPoint as="offset" />
          </mxGeometry>
        </mxCell>
        <mxCell id="XB7Z7pcZkWl5WEAXLOiz-71" style="edgeStyle=orthogonalEdgeStyle;rounded=0;orthogonalLoop=1;jettySize=auto;html=1;exitX=1;exitY=0.5;exitDx=0;exitDy=0;entryX=0;entryY=0.5;entryDx=0;entryDy=0;" edge="1" parent="1" source="XB7Z7pcZkWl5WEAXLOiz-64" target="XB7Z7pcZkWl5WEAXLOiz-69">
          <mxGeometry relative="1" as="geometry" />
        </mxCell>
        <mxCell id="XB7Z7pcZkWl5WEAXLOiz-72" value="[unsigned user]" style="edgeLabel;html=1;align=center;verticalAlign=middle;resizable=0;points=[];" vertex="1" connectable="0" parent="XB7Z7pcZkWl5WEAXLOiz-71">
          <mxGeometry x="-0.2571" y="-3" relative="1" as="geometry">
            <mxPoint x="-1" as="offset" />
          </mxGeometry>
        </mxCell>
        <mxCell id="XB7Z7pcZkWl5WEAXLOiz-64" value="" style="rhombus;whiteSpace=wrap;html=1;" vertex="1" parent="1">
          <mxGeometry x="750" y="388" width="100" height="90" as="geometry" />
        </mxCell>
        <mxCell id="XB7Z7pcZkWl5WEAXLOiz-70" style="edgeStyle=orthogonalEdgeStyle;rounded=0;orthogonalLoop=1;jettySize=auto;html=1;exitX=0.5;exitY=1;exitDx=0;exitDy=0;entryX=0.5;entryY=1;entryDx=0;entryDy=0;" edge="1" parent="1" source="XB7Z7pcZkWl5WEAXLOiz-66" target="XB7Z7pcZkWl5WEAXLOiz-69">
          <mxGeometry relative="1" as="geometry" />
        </mxCell>
        <mxCell id="XB7Z7pcZkWl5WEAXLOiz-66" value="Interact with post" style="rounded=1;whiteSpace=wrap;html=1;" vertex="1" parent="1">
          <mxGeometry x="740" y="560" width="120" height="60" as="geometry" />
        </mxCell>
        <mxCell id="XB7Z7pcZkWl5WEAXLOiz-74" style="edgeStyle=orthogonalEdgeStyle;rounded=0;orthogonalLoop=1;jettySize=auto;html=1;exitX=0.5;exitY=0;exitDx=0;exitDy=0;entryX=0.5;entryY=1;entryDx=0;entryDy=0;" edge="1" parent="1" source="XB7Z7pcZkWl5WEAXLOiz-69" target="XB7Z7pcZkWl5WEAXLOiz-73">
          <mxGeometry relative="1" as="geometry" />
        </mxCell>
        <mxCell id="XB7Z7pcZkWl5WEAXLOiz-69" value="" style="rhombus;whiteSpace=wrap;html=1;" vertex="1" parent="1">
          <mxGeometry x="1000" y="388" width="100" height="90" as="geometry" />
        </mxCell>
        <mxCell id="XB7Z7pcZkWl5WEAXLOiz-76" style="edgeStyle=orthogonalEdgeStyle;rounded=0;orthogonalLoop=1;jettySize=auto;html=1;exitX=0.5;exitY=0;exitDx=0;exitDy=0;entryX=0.5;entryY=1;entryDx=0;entryDy=0;" edge="1" parent="1" source="XB7Z7pcZkWl5WEAXLOiz-73" target="XB7Z7pcZkWl5WEAXLOiz-75">
          <mxGeometry relative="1" as="geometry" />
        </mxCell>
        <mxCell id="XB7Z7pcZkWl5WEAXLOiz-73" value="View Post" style="rounded=1;whiteSpace=wrap;html=1;" vertex="1" parent="1">
          <mxGeometry x="990" y="280" width="120" height="60" as="geometry" />
        </mxCell>
        <mxCell id="XB7Z7pcZkWl5WEAXLOiz-77" style="edgeStyle=orthogonalEdgeStyle;rounded=0;orthogonalLoop=1;jettySize=auto;html=1;exitX=1;exitY=0.5;exitDx=0;exitDy=0;entryX=1;entryY=0.5;entryDx=0;entryDy=0;" edge="1" parent="1" source="XB7Z7pcZkWl5WEAXLOiz-75" target="XB7Z7pcZkWl5WEAXLOiz-69">
          <mxGeometry relative="1" as="geometry" />
        </mxCell>
        <mxCell id="XB7Z7pcZkWl5WEAXLOiz-78" value="[no actions]" style="edgeLabel;html=1;align=center;verticalAlign=middle;resizable=0;points=[];" vertex="1" connectable="0" parent="XB7Z7pcZkWl5WEAXLOiz-77">
          <mxGeometry x="-0.3567" y="4" relative="1" as="geometry">
            <mxPoint y="-1" as="offset" />
          </mxGeometry>
        </mxCell>
        <mxCell id="XB7Z7pcZkWl5WEAXLOiz-79" style="edgeStyle=orthogonalEdgeStyle;rounded=0;orthogonalLoop=1;jettySize=auto;html=1;exitX=0;exitY=0.5;exitDx=0;exitDy=0;" edge="1" parent="1" source="XB7Z7pcZkWl5WEAXLOiz-75" target="XB7Z7pcZkWl5WEAXLOiz-54">
          <mxGeometry relative="1" as="geometry" />
        </mxCell>
        <mxCell id="XB7Z7pcZkWl5WEAXLOiz-80" value="[exit full view of post]" style="edgeLabel;html=1;align=center;verticalAlign=middle;resizable=0;points=[];" vertex="1" connectable="0" parent="XB7Z7pcZkWl5WEAXLOiz-79">
          <mxGeometry x="-0.7154" y="2" relative="1" as="geometry">
            <mxPoint as="offset" />
          </mxGeometry>
        </mxCell>
        <mxCell id="XB7Z7pcZkWl5WEAXLOiz-82" style="edgeStyle=orthogonalEdgeStyle;rounded=0;orthogonalLoop=1;jettySize=auto;html=1;exitX=0.5;exitY=0;exitDx=0;exitDy=0;entryX=1;entryY=0.5;entryDx=0;entryDy=0;" edge="1" parent="1" source="XB7Z7pcZkWl5WEAXLOiz-75" target="XB7Z7pcZkWl5WEAXLOiz-81">
          <mxGeometry relative="1" as="geometry" />
        </mxCell>
        <mxCell id="XB7Z7pcZkWl5WEAXLOiz-83" value="[close Website" style="edgeLabel;html=1;align=center;verticalAlign=middle;resizable=0;points=[];" vertex="1" connectable="0" parent="XB7Z7pcZkWl5WEAXLOiz-82">
          <mxGeometry x="0.0801" y="1" relative="1" as="geometry">
            <mxPoint x="-1" as="offset" />
          </mxGeometry>
        </mxCell>
        <mxCell id="XB7Z7pcZkWl5WEAXLOiz-75" value="" style="rhombus;whiteSpace=wrap;html=1;" vertex="1" parent="1">
          <mxGeometry x="1000" y="110" width="100" height="90" as="geometry" />
        </mxCell>
        <mxCell id="XB7Z7pcZkWl5WEAXLOiz-85" style="edgeStyle=orthogonalEdgeStyle;rounded=0;orthogonalLoop=1;jettySize=auto;html=1;exitX=0;exitY=0.5;exitDx=0;exitDy=0;entryX=1;entryY=0.5;entryDx=0;entryDy=0;" edge="1" parent="1" source="XB7Z7pcZkWl5WEAXLOiz-81" target="XB7Z7pcZkWl5WEAXLOiz-84">
          <mxGeometry relative="1" as="geometry" />
        </mxCell>
        <mxCell id="XB7Z7pcZkWl5WEAXLOiz-81" value="" style="rhombus;whiteSpace=wrap;html=1;" vertex="1" parent="1">
          <mxGeometry x="770" y="40" width="100" height="90" as="geometry" />
        </mxCell>
        <mxCell id="XB7Z7pcZkWl5WEAXLOiz-88" style="edgeStyle=orthogonalEdgeStyle;rounded=0;orthogonalLoop=1;jettySize=auto;html=1;exitX=0;exitY=0.5;exitDx=0;exitDy=0;entryX=1;entryY=0.5;entryDx=0;entryDy=0;" edge="1" parent="1" source="XB7Z7pcZkWl5WEAXLOiz-84" target="XB7Z7pcZkWl5WEAXLOiz-87">
          <mxGeometry relative="1" as="geometry" />
        </mxCell>
        <mxCell id="XB7Z7pcZkWl5WEAXLOiz-84" value="Website closed" style="rounded=1;whiteSpace=wrap;html=1;" vertex="1" parent="1">
          <mxGeometry x="585" y="55" width="120" height="60" as="geometry" />
        </mxCell>
        <mxCell id="XB7Z7pcZkWl5WEAXLOiz-87" value="" style="ellipse;shape=doubleEllipse;whiteSpace=wrap;html=1;aspect=fixed;" vertex="1" parent="1">
          <mxGeometry x="420" y="45" width="80" height="80" as="geometry" />
        </mxCell>
      </root>
    </mxGraphModel>
  </diagram>
</mxfile>
